<mxfile host="app.diagrams.net" modified="2020-09-07T19:55:14.531Z" agent="5.0 (Windows NT 10.0; WOW64) AppleWebKit/537.36 (KHTML, like Gecko) Chrome/85.0.4183.83 Safari/537.36" etag="1Vl46avNBurmbTUzIpG1" version="13.6.5" type="github">
  <diagram id="Lunx7FJIqspZK_VuQ0n8" name="Page-1">
    <mxGraphModel dx="1422" dy="745" grid="1" gridSize="10" guides="1" tooltips="1" connect="1" arrows="1" fold="1" page="1" pageScale="1" pageWidth="850" pageHeight="1100" math="0" shadow="0">
      <root>
        <mxCell id="0" />
        <mxCell id="1" parent="0" />
        <mxCell id="KTyBPeHKV0A6xwSrAMhU-9" style="rounded=0;orthogonalLoop=1;jettySize=auto;html=1;endSize=9;startSize=9;entryX=0;entryY=0.5;entryDx=0;entryDy=0;" edge="1" parent="1" source="KTyBPeHKV0A6xwSrAMhU-2" target="KTyBPeHKV0A6xwSrAMhU-6">
          <mxGeometry relative="1" as="geometry" />
        </mxCell>
        <mxCell id="KTyBPeHKV0A6xwSrAMhU-10" value="&lt;font style=&quot;font-size: 21px&quot;&gt;*&lt;/font&gt;" style="text;html=1;align=center;verticalAlign=middle;resizable=0;points=[];autosize=1;" vertex="1" parent="1">
          <mxGeometry x="580" y="600" width="20" height="20" as="geometry" />
        </mxCell>
        <mxCell id="KTyBPeHKV0A6xwSrAMhU-15" style="edgeStyle=none;rounded=0;orthogonalLoop=1;jettySize=auto;html=1;entryX=0;entryY=0.5;entryDx=0;entryDy=0;startSize=9;endSize=9;" edge="1" parent="1" source="KTyBPeHKV0A6xwSrAMhU-2" target="KTyBPeHKV0A6xwSrAMhU-12">
          <mxGeometry relative="1" as="geometry" />
        </mxCell>
        <mxCell id="KTyBPeHKV0A6xwSrAMhU-21" value="&lt;font style=&quot;font-size: 21px&quot;&gt;*&lt;/font&gt;" style="text;html=1;align=center;verticalAlign=middle;resizable=0;points=[];autosize=1;" vertex="1" parent="1">
          <mxGeometry x="580" y="430" width="20" height="20" as="geometry" />
        </mxCell>
        <mxCell id="KTyBPeHKV0A6xwSrAMhU-22" style="edgeStyle=none;rounded=0;orthogonalLoop=1;jettySize=auto;html=1;entryX=-0.011;entryY=0.202;entryDx=0;entryDy=0;entryPerimeter=0;startSize=9;endSize=9;" edge="1" parent="1" source="KTyBPeHKV0A6xwSrAMhU-16" target="KTyBPeHKV0A6xwSrAMhU-2">
          <mxGeometry relative="1" as="geometry" />
        </mxCell>
        <mxCell id="KTyBPeHKV0A6xwSrAMhU-23" style="edgeStyle=none;rounded=0;orthogonalLoop=1;jettySize=auto;html=1;startSize=9;endSize=9;" edge="1" parent="1" source="KTyBPeHKV0A6xwSrAMhU-17" target="KTyBPeHKV0A6xwSrAMhU-4">
          <mxGeometry relative="1" as="geometry" />
        </mxCell>
        <mxCell id="KTyBPeHKV0A6xwSrAMhU-24" value="&lt;font style=&quot;font-size: 21px&quot;&gt;*&lt;/font&gt;" style="text;html=1;align=center;verticalAlign=middle;resizable=0;points=[];autosize=1;" vertex="1" parent="1">
          <mxGeometry x="310" y="470" width="20" height="20" as="geometry" />
        </mxCell>
        <mxCell id="KTyBPeHKV0A6xwSrAMhU-25" value="&lt;font style=&quot;font-size: 21px&quot;&gt;*&lt;/font&gt;" style="text;html=1;align=center;verticalAlign=middle;resizable=0;points=[];autosize=1;" vertex="1" parent="1">
          <mxGeometry x="310" y="540" width="20" height="20" as="geometry" />
        </mxCell>
        <mxCell id="KTyBPeHKV0A6xwSrAMhU-1" value="Story" style="swimlane;fontStyle=1;align=center;verticalAlign=top;childLayout=stackLayout;horizontal=1;startSize=26;horizontalStack=0;resizeParent=1;resizeParentMax=0;resizeLast=0;collapsible=1;marginBottom=0;" vertex="1" parent="1">
          <mxGeometry x="340" y="440" width="180" height="170" as="geometry" />
        </mxCell>
        <mxCell id="KTyBPeHKV0A6xwSrAMhU-2" value="- score: int&#xa;- year: int&#xa;- author: User&#xa;- tags: List&lt;String&gt;&#xa;- comments: List&lt;Comment&gt;&#xa;- reviews: List&lt;Review&gt;" style="text;strokeColor=none;fillColor=none;align=left;verticalAlign=top;spacingLeft=4;spacingRight=4;overflow=hidden;rotatable=0;points=[[0,0.5],[1,0.5]];portConstraint=eastwest;" vertex="1" parent="KTyBPeHKV0A6xwSrAMhU-1">
          <mxGeometry y="26" width="180" height="94" as="geometry" />
        </mxCell>
        <mxCell id="KTyBPeHKV0A6xwSrAMhU-3" value="" style="line;strokeWidth=1;fillColor=none;align=left;verticalAlign=middle;spacingTop=-1;spacingLeft=3;spacingRight=3;rotatable=0;labelPosition=right;points=[];portConstraint=eastwest;" vertex="1" parent="KTyBPeHKV0A6xwSrAMhU-1">
          <mxGeometry y="120" width="180" height="8" as="geometry" />
        </mxCell>
        <mxCell id="KTyBPeHKV0A6xwSrAMhU-4" value="- calculateScore()&#xa;+ addReview(Review" style="text;strokeColor=none;fillColor=none;align=left;verticalAlign=top;spacingLeft=4;spacingRight=4;overflow=hidden;rotatable=0;points=[[0,0.5],[1,0.5]];portConstraint=eastwest;" vertex="1" parent="KTyBPeHKV0A6xwSrAMhU-1">
          <mxGeometry y="128" width="180" height="42" as="geometry" />
        </mxCell>
        <mxCell id="KTyBPeHKV0A6xwSrAMhU-5" value="Review" style="swimlane;fontStyle=1;align=center;verticalAlign=top;childLayout=stackLayout;horizontal=1;startSize=26;horizontalStack=0;resizeParent=1;resizeParentMax=0;resizeLast=0;collapsible=1;marginBottom=0;" vertex="1" parent="1">
          <mxGeometry x="610" y="550" width="160" height="130" as="geometry" />
        </mxCell>
        <mxCell id="KTyBPeHKV0A6xwSrAMhU-6" value="- score: int&#xa;- author: User&#xa;- content: String" style="text;strokeColor=none;fillColor=none;align=left;verticalAlign=top;spacingLeft=4;spacingRight=4;overflow=hidden;rotatable=0;points=[[0,0.5],[1,0.5]];portConstraint=eastwest;" vertex="1" parent="KTyBPeHKV0A6xwSrAMhU-5">
          <mxGeometry y="26" width="160" height="54" as="geometry" />
        </mxCell>
        <mxCell id="KTyBPeHKV0A6xwSrAMhU-7" value="" style="line;strokeWidth=1;fillColor=none;align=left;verticalAlign=middle;spacingTop=-1;spacingLeft=3;spacingRight=3;rotatable=0;labelPosition=right;points=[];portConstraint=eastwest;" vertex="1" parent="KTyBPeHKV0A6xwSrAMhU-5">
          <mxGeometry y="80" width="160" height="8" as="geometry" />
        </mxCell>
        <mxCell id="KTyBPeHKV0A6xwSrAMhU-8" value="+ editScore(int)&#xa;+ editContent(String)" style="text;strokeColor=none;fillColor=none;align=left;verticalAlign=top;spacingLeft=4;spacingRight=4;overflow=hidden;rotatable=0;points=[[0,0.5],[1,0.5]];portConstraint=eastwest;" vertex="1" parent="KTyBPeHKV0A6xwSrAMhU-5">
          <mxGeometry y="88" width="160" height="42" as="geometry" />
        </mxCell>
        <mxCell id="KTyBPeHKV0A6xwSrAMhU-11" value="Comment" style="swimlane;fontStyle=1;align=center;verticalAlign=top;childLayout=stackLayout;horizontal=1;startSize=26;horizontalStack=0;resizeParent=1;resizeParentMax=0;resizeLast=0;collapsible=1;marginBottom=0;" vertex="1" parent="1">
          <mxGeometry x="610" y="390" width="160" height="130" as="geometry" />
        </mxCell>
        <mxCell id="KTyBPeHKV0A6xwSrAMhU-12" value="- date&#xa;- author&#xa;- content" style="text;strokeColor=none;fillColor=none;align=left;verticalAlign=top;spacingLeft=4;spacingRight=4;overflow=hidden;rotatable=0;points=[[0,0.5],[1,0.5]];portConstraint=eastwest;" vertex="1" parent="KTyBPeHKV0A6xwSrAMhU-11">
          <mxGeometry y="26" width="160" height="54" as="geometry" />
        </mxCell>
        <mxCell id="KTyBPeHKV0A6xwSrAMhU-13" value="" style="line;strokeWidth=1;fillColor=none;align=left;verticalAlign=middle;spacingTop=-1;spacingLeft=3;spacingRight=3;rotatable=0;labelPosition=right;points=[];portConstraint=eastwest;" vertex="1" parent="KTyBPeHKV0A6xwSrAMhU-11">
          <mxGeometry y="80" width="160" height="8" as="geometry" />
        </mxCell>
        <mxCell id="KTyBPeHKV0A6xwSrAMhU-14" value="+ editScore(int)&#xa;+ editContent(String)" style="text;strokeColor=none;fillColor=none;align=left;verticalAlign=top;spacingLeft=4;spacingRight=4;overflow=hidden;rotatable=0;points=[[0,0.5],[1,0.5]];portConstraint=eastwest;" vertex="1" parent="KTyBPeHKV0A6xwSrAMhU-11">
          <mxGeometry y="88" width="160" height="42" as="geometry" />
        </mxCell>
        <mxCell id="KTyBPeHKV0A6xwSrAMhU-16" value="User" style="swimlane;fontStyle=1;align=center;verticalAlign=top;childLayout=stackLayout;horizontal=1;startSize=26;horizontalStack=0;resizeParent=1;resizeParentMax=0;resizeLast=0;collapsible=1;marginBottom=0;" vertex="1" parent="1">
          <mxGeometry x="80" y="490" width="160" height="94" as="geometry" />
        </mxCell>
        <mxCell id="KTyBPeHKV0A6xwSrAMhU-17" value="+ storiesWritten: List&lt;Story&gt;&#xa;+ storiesRead: List&lt;Story&gt;" style="text;strokeColor=none;fillColor=none;align=left;verticalAlign=top;spacingLeft=4;spacingRight=4;overflow=hidden;rotatable=0;points=[[0,0.5],[1,0.5]];portConstraint=eastwest;" vertex="1" parent="KTyBPeHKV0A6xwSrAMhU-16">
          <mxGeometry y="26" width="160" height="34" as="geometry" />
        </mxCell>
        <mxCell id="KTyBPeHKV0A6xwSrAMhU-18" value="" style="line;strokeWidth=1;fillColor=none;align=left;verticalAlign=middle;spacingTop=-1;spacingLeft=3;spacingRight=3;rotatable=0;labelPosition=right;points=[];portConstraint=eastwest;" vertex="1" parent="KTyBPeHKV0A6xwSrAMhU-16">
          <mxGeometry y="60" width="160" height="8" as="geometry" />
        </mxCell>
        <mxCell id="KTyBPeHKV0A6xwSrAMhU-19" value="+ method(type): type" style="text;strokeColor=none;fillColor=none;align=left;verticalAlign=top;spacingLeft=4;spacingRight=4;overflow=hidden;rotatable=0;points=[[0,0.5],[1,0.5]];portConstraint=eastwest;" vertex="1" parent="KTyBPeHKV0A6xwSrAMhU-16">
          <mxGeometry y="68" width="160" height="26" as="geometry" />
        </mxCell>
        <mxCell id="KTyBPeHKV0A6xwSrAMhU-26" value="Library" style="swimlane;fontStyle=1;align=center;verticalAlign=top;childLayout=stackLayout;horizontal=1;startSize=26;horizontalStack=0;resizeParent=1;resizeParentMax=0;resizeLast=0;collapsible=1;marginBottom=0;" vertex="1" parent="1">
          <mxGeometry x="350" y="280" width="160" height="86" as="geometry" />
        </mxCell>
        <mxCell id="KTyBPeHKV0A6xwSrAMhU-27" value="+ allStories: List&lt;Story&gt;" style="text;strokeColor=none;fillColor=none;align=left;verticalAlign=top;spacingLeft=4;spacingRight=4;overflow=hidden;rotatable=0;points=[[0,0.5],[1,0.5]];portConstraint=eastwest;" vertex="1" parent="KTyBPeHKV0A6xwSrAMhU-26">
          <mxGeometry y="26" width="160" height="26" as="geometry" />
        </mxCell>
        <mxCell id="KTyBPeHKV0A6xwSrAMhU-28" value="" style="line;strokeWidth=1;fillColor=none;align=left;verticalAlign=middle;spacingTop=-1;spacingLeft=3;spacingRight=3;rotatable=0;labelPosition=right;points=[];portConstraint=eastwest;" vertex="1" parent="KTyBPeHKV0A6xwSrAMhU-26">
          <mxGeometry y="52" width="160" height="8" as="geometry" />
        </mxCell>
        <mxCell id="KTyBPeHKV0A6xwSrAMhU-29" value=" " style="text;strokeColor=none;fillColor=none;align=left;verticalAlign=top;spacingLeft=4;spacingRight=4;overflow=hidden;rotatable=0;points=[[0,0.5],[1,0.5]];portConstraint=eastwest;" vertex="1" parent="KTyBPeHKV0A6xwSrAMhU-26">
          <mxGeometry y="60" width="160" height="26" as="geometry" />
        </mxCell>
        <mxCell id="KTyBPeHKV0A6xwSrAMhU-34" style="edgeStyle=none;rounded=0;orthogonalLoop=1;jettySize=auto;html=1;entryX=0.5;entryY=0;entryDx=0;entryDy=0;startSize=9;endSize=9;" edge="1" parent="1" source="KTyBPeHKV0A6xwSrAMhU-29" target="KTyBPeHKV0A6xwSrAMhU-1">
          <mxGeometry relative="1" as="geometry" />
        </mxCell>
        <mxCell id="KTyBPeHKV0A6xwSrAMhU-35" style="edgeStyle=none;rounded=0;orthogonalLoop=1;jettySize=auto;html=1;entryX=0;entryY=0.5;entryDx=0;entryDy=0;startSize=9;endSize=9;" edge="1" parent="1" source="KTyBPeHKV0A6xwSrAMhU-30" target="KTyBPeHKV0A6xwSrAMhU-27">
          <mxGeometry relative="1" as="geometry" />
        </mxCell>
        <mxCell id="KTyBPeHKV0A6xwSrAMhU-30" value="&lt;&lt;interface&gt;&gt;&#xa;Search" style="swimlane;fontStyle=1;align=center;verticalAlign=top;childLayout=stackLayout;horizontal=1;startSize=40;horizontalStack=0;resizeParent=1;resizeParentMax=0;resizeLast=0;collapsible=1;marginBottom=0;" vertex="1" parent="1">
          <mxGeometry x="90" y="269" width="180" height="100" as="geometry" />
        </mxCell>
        <mxCell id="KTyBPeHKV0A6xwSrAMhU-31" value=" " style="text;strokeColor=none;fillColor=none;align=left;verticalAlign=top;spacingLeft=4;spacingRight=4;overflow=hidden;rotatable=0;points=[[0,0.5],[1,0.5]];portConstraint=eastwest;" vertex="1" parent="KTyBPeHKV0A6xwSrAMhU-30">
          <mxGeometry y="40" width="180" height="26" as="geometry" />
        </mxCell>
        <mxCell id="KTyBPeHKV0A6xwSrAMhU-32" value="" style="line;strokeWidth=1;fillColor=none;align=left;verticalAlign=middle;spacingTop=-1;spacingLeft=3;spacingRight=3;rotatable=0;labelPosition=right;points=[];portConstraint=eastwest;" vertex="1" parent="KTyBPeHKV0A6xwSrAMhU-30">
          <mxGeometry y="66" width="180" height="8" as="geometry" />
        </mxCell>
        <mxCell id="KTyBPeHKV0A6xwSrAMhU-33" value="+ filter(List&lt;Story&gt;): List&lt;Story&gt;" style="text;strokeColor=none;fillColor=none;align=left;verticalAlign=top;spacingLeft=4;spacingRight=4;overflow=hidden;rotatable=0;points=[[0,0.5],[1,0.5]];portConstraint=eastwest;" vertex="1" parent="KTyBPeHKV0A6xwSrAMhU-30">
          <mxGeometry y="74" width="180" height="26" as="geometry" />
        </mxCell>
      </root>
    </mxGraphModel>
  </diagram>
</mxfile>
